{
    "asset" : {
        "generator" : "Khronos glTF Blender I/O v1.4.40",
        "version" : "2.0"
    },
    "scene" : 0,
    "scenes" : [
        {
            "name" : "Scene",
            "nodes" : [
                0,
                1
            ]
        }
    ],
    "nodes" : [
        {
            "mesh" : 0,
            "name" : "chao"
        },
        {
            "mesh" : 1,
            "name" : "edificio_02_ponte"
        }
    ],
    "materials" : [
        {
            "doubleSided" : true,
            "name" : "Asfalto",
            "normalTexture" : {
                "index" : 0,
                "texCoord" : 0
            },
            "occlusionTexture" : {
                "index" : 1,
                "texCoord" : 0
            },
            "pbrMetallicRoughness" : {
                "baseColorTexture" : {
                    "index" : 2,
                    "texCoord" : 0
                },
                "metallicFactor" : 0,
                "metallicRoughnessTexture" : {
                    "index" : 1,
                    "texCoord" : 0
                }
            }
        },
        {
            "doubleSided" : true,
            "name" : "Telhas",
            "normalTexture" : {
                "index" : 3,
                "texCoord" : 0
            },
            "pbrMetallicRoughness" : {
                "baseColorTexture" : {
                    "index" : 4,
                    "texCoord" : 0
                },
                "metallicFactor" : 0,
                "metallicRoughnessTexture" : {
                    "index" : 5,
                    "texCoord" : 0
                }
            }
        },
        {
            "doubleSided" : true,
            "name" : "Grama",
            "normalTexture" : {
                "index" : 6,
                "texCoord" : 0
            },
            "pbrMetallicRoughness" : {
                "baseColorTexture" : {
                    "index" : 7,
                    "texCoord" : 0
                },
                "metallicFactor" : 0,
                "metallicRoughnessTexture" : {
                    "index" : 8,
                    "texCoord" : 0
                }
            }
        },
        {
            "doubleSided" : true,
            "name" : "Musgo",
            "normalTexture" : {
                "index" : 9,
                "texCoord" : 0
            },
            "pbrMetallicRoughness" : {
                "baseColorTexture" : {
                    "index" : 10,
                    "texCoord" : 0
                },
                "metallicFactor" : 0,
                "metallicRoughnessTexture" : {
                    "index" : 11,
                    "texCoord" : 0
                }
            }
        },
        {
            "doubleSided" : true,
            "name" : "Tabuas",
            "normalTexture" : {
                "index" : 12,
                "texCoord" : 0
            },
            "pbrMetallicRoughness" : {
                "baseColorTexture" : {
                    "index" : 13,
                    "texCoord" : 0
                },
                "metallicFactor" : 0,
                "metallicRoughnessTexture" : {
                    "index" : 14,
                    "texCoord" : 0
                }
            }
        },
        {
            "doubleSided" : true,
            "name" : "Retangulos",
            "normalTexture" : {
                "index" : 15,
                "texCoord" : 0
            },
            "pbrMetallicRoughness" : {
                "baseColorTexture" : {
                    "index" : 16,
                    "texCoord" : 0
                },
                "metallicFactor" : 0,
                "metallicRoughnessTexture" : {
                    "index" : 17,
                    "texCoord" : 0
                }
            }
        }
    ],
    "meshes" : [
        {
            "name" : "Cube.001",
            "primitives" : [
                {
                    "attributes" : {
                        "POSITION" : 0,
                        "NORMAL" : 1,
                        "TEXCOORD_0" : 2
                    },
                    "indices" : 3,
                    "material" : 0
                }
            ]
        },
        {
            "name" : "Cube.003",
            "primitives" : [
                {
                    "attributes" : {
                        "POSITION" : 4,
                        "NORMAL" : 5,
                        "TEXCOORD_0" : 6
                    },
                    "indices" : 7,
                    "material" : 1
                },
                {
                    "attributes" : {
                        "POSITION" : 8,
                        "NORMAL" : 9,
                        "TEXCOORD_0" : 10
                    },
                    "indices" : 11,
                    "material" : 2
                },
                {
                    "attributes" : {
                        "POSITION" : 12,
                        "NORMAL" : 13,
                        "TEXCOORD_0" : 14
                    },
                    "indices" : 15,
                    "material" : 3
                },
                {
                    "attributes" : {
                        "POSITION" : 16,
                        "NORMAL" : 17,
                        "TEXCOORD_0" : 18
                    },
                    "indices" : 19,
                    "material" : 4
                },
                {
                    "attributes" : {
                        "POSITION" : 20,
                        "NORMAL" : 21,
                        "TEXCOORD_0" : 22
                    },
                    "indices" : 23,
                    "material" : 5
                }
            ]
        }
    ],
    "textures" : [
        {
            "sampler" : 0,
            "source" : 0
        },
        {
            "sampler" : 0,
            "source" : 1
        },
        {
            "sampler" : 0,
            "source" : 2
        },
        {
            "sampler" : 0,
            "source" : 3
        },
        {
            "sampler" : 0,
            "source" : 4
        },
        {
            "sampler" : 0,
            "source" : 5
        },
        {
            "sampler" : 0,
            "source" : 6
        },
        {
            "sampler" : 0,
            "source" : 7
        },
        {
            "sampler" : 0,
            "source" : 8
        },
        {
            "sampler" : 0,
            "source" : 9
        },
        {
            "sampler" : 0,
            "source" : 10
        },
        {
            "sampler" : 0,
            "source" : 11
        },
        {
            "sampler" : 0,
            "source" : 12
        },
        {
            "sampler" : 0,
            "source" : 13
        },
        {
            "sampler" : 0,
            "source" : 14
        },
        {
            "sampler" : 0,
            "source" : 15
        },
        {
            "sampler" : 0,
            "source" : 16
        },
        {
            "sampler" : 0,
            "source" : 17
        }
    ],
    "images" : [
        {
            "mimeType" : "image/jpeg",
            "name" : "Asphalt_001_NRM",
            "uri" : "Asphalt_001_NRM.jpg"
        },
        {
            "mimeType" : "image/png",
            "name" : "Asphalt_001_OCC-Asphalt_001_SPEC",
            "uri" : "Asphalt_001_OCC-Asphalt_001_SPEC.png"
        },
        {
            "mimeType" : "image/jpeg",
            "name" : "Asphalt_001_COLOR",
            "uri" : "Asphalt_001_COLOR.jpg"
        },
        {
            "mimeType" : "image/jpeg",
            "name" : "RoofingTiles005_4K_Normal",
            "uri" : "RoofingTiles005_4K_Normal.jpg"
        },
        {
            "mimeType" : "image/jpeg",
            "name" : "RoofingTiles005_4K_Color",
            "uri" : "RoofingTiles005_4K_Color.jpg"
        },
        {
            "mimeType" : "image/png",
            "name" : "RoofingTiles005_4K_Roughness",
            "uri" : "RoofingTiles005_4K_Roughness.png"
        },
        {
            "mimeType" : "image/jpeg",
            "name" : "mossy-groundnormal",
            "uri" : "mossy-groundnormal.jpg"
        },
        {
            "mimeType" : "image/jpeg",
            "name" : "mossy-ground1-albedo",
            "uri" : "mossy-ground1-albedo.jpg"
        },
        {
            "mimeType" : "image/png",
            "name" : "mossy-ground1-roughness",
            "uri" : "mossy-ground1-roughness.png"
        },
        {
            "mimeType" : "image/jpeg",
            "name" : "Moss004_2K_Normal",
            "uri" : "Moss004_2K_Normal.jpg"
        },
        {
            "mimeType" : "image/jpeg",
            "name" : "Moss004_2K_Color",
            "uri" : "Moss004_2K_Color.jpg"
        },
        {
            "mimeType" : "image/png",
            "name" : "Moss004_2K_Roughness",
            "uri" : "Moss004_2K_Roughness.png"
        },
        {
            "mimeType" : "image/jpeg",
            "name" : "old-plank-flooring3_normal",
            "uri" : "old-plank-flooring3_normal.jpg"
        },
        {
            "mimeType" : "image/jpeg",
            "name" : "old-plank-flooring3_basecolor",
            "uri" : "old-plank-flooring3_basecolor.jpg"
        },
        {
            "mimeType" : "image/png",
            "name" : "old-plank-flooring3_roughness",
            "uri" : "old-plank-flooring3_roughness.png"
        },
        {
            "mimeType" : "image/jpeg",
            "name" : "wetcobble_normal-ogl",
            "uri" : "wetcobble_normal-ogl.jpg"
        },
        {
            "mimeType" : "image/jpeg",
            "name" : "wetcobble_albedo",
            "uri" : "wetcobble_albedo.jpg"
        },
        {
            "mimeType" : "image/png",
            "name" : "wetcobble_roughness",
            "uri" : "wetcobble_roughness.png"
        }
    ],
    "accessors" : [
        {
            "bufferView" : 0,
            "componentType" : 5126,
            "count" : 4,
            "max" : [
                25,
                -200,
                25
            ],
            "min" : [
                -25,
                -200,
                -25
            ],
            "type" : "VEC3"
        },
        {
            "bufferView" : 1,
            "componentType" : 5126,
            "count" : 4,
            "type" : "VEC3"
        },
        {
            "bufferView" : 2,
            "componentType" : 5126,
            "count" : 4,
            "type" : "VEC2"
        },
        {
            "bufferView" : 3,
            "componentType" : 5123,
            "count" : 6,
            "type" : "SCALAR"
        },
        {
            "bufferView" : 4,
            "componentType" : 5126,
            "count" : 88,
            "max" : [
                14.298982620239258,
                0.31456294655799866,
                14.298982620239258
            ],
            "min" : [
                -24.35888671875,
                -200,
                -14.298982620239258
            ],
            "type" : "VEC3"
        },
        {
            "bufferView" : 5,
            "componentType" : 5126,
            "count" : 88,
            "type" : "VEC3"
        },
        {
            "bufferView" : 6,
            "componentType" : 5126,
            "count" : 88,
            "type" : "VEC2"
        },
        {
            "bufferView" : 7,
            "componentType" : 5123,
            "count" : 138,
            "type" : "SCALAR"
        },
        {
            "bufferView" : 8,
            "componentType" : 5126,
            "count" : 16,
            "max" : [
                10,
                -160,
                10
            ],
            "min" : [
                -10,
                -200,
                -10
            ],
            "type" : "VEC3"
        },
        {
            "bufferView" : 9,
            "componentType" : 5126,
            "count" : 16,
            "type" : "VEC3"
        },
        {
            "bufferView" : 10,
            "componentType" : 5126,
            "count" : 16,
            "type" : "VEC2"
        },
        {
            "bufferView" : 11,
            "componentType" : 5123,
            "count" : 24,
            "type" : "SCALAR"
        },
        {
            "bufferView" : 12,
            "componentType" : 5126,
            "count" : 16,
            "max" : [
                10,
                -120,
                10
            ],
            "min" : [
                -10,
                -160,
                -10
            ],
            "type" : "VEC3"
        },
        {
            "bufferView" : 13,
            "componentType" : 5126,
            "count" : 16,
            "type" : "VEC3"
        },
        {
            "bufferView" : 14,
            "componentType" : 5126,
            "count" : 16,
            "type" : "VEC2"
        },
        {
            "bufferView" : 15,
            "componentType" : 5123,
            "count" : 24,
            "type" : "SCALAR"
        },
        {
            "bufferView" : 16,
            "componentType" : 5126,
            "count" : 16,
            "max" : [
                10,
                -20,
                10
            ],
            "min" : [
                -10,
                -40,
                -10
            ],
            "type" : "VEC3"
        },
        {
            "bufferView" : 17,
            "componentType" : 5126,
            "count" : 16,
            "type" : "VEC3"
        },
        {
            "bufferView" : 18,
            "componentType" : 5126,
            "count" : 16,
            "type" : "VEC2"
        },
        {
            "bufferView" : 19,
            "componentType" : 5123,
            "count" : 24,
            "type" : "SCALAR"
        },
        {
            "bufferView" : 20,
            "componentType" : 5126,
            "count" : 6,
            "max" : [
                -10,
                0.31456294655799866,
                3.88175368309021
            ],
            "min" : [
                -24.35888671875,
                -20,
                -3.08774471282959
            ],
            "type" : "VEC3"
        },
        {
            "bufferView" : 21,
            "componentType" : 5126,
            "count" : 6,
            "type" : "VEC3"
        },
        {
            "bufferView" : 22,
            "componentType" : 5126,
            "count" : 6,
            "type" : "VEC2"
        },
        {
            "bufferView" : 23,
            "componentType" : 5123,
            "count" : 6,
            "type" : "SCALAR"
        }
    ],
    "bufferViews" : [
        {
            "buffer" : 0,
            "byteLength" : 48,
            "byteOffset" : 0
        },
        {
            "buffer" : 0,
            "byteLength" : 48,
            "byteOffset" : 48
        },
        {
            "buffer" : 0,
            "byteLength" : 32,
            "byteOffset" : 96
        },
        {
            "buffer" : 0,
            "byteLength" : 12,
            "byteOffset" : 128
        },
        {
            "buffer" : 0,
            "byteLength" : 1056,
            "byteOffset" : 140
        },
        {
            "buffer" : 0,
            "byteLength" : 1056,
            "byteOffset" : 1196
        },
        {
            "buffer" : 0,
            "byteLength" : 704,
            "byteOffset" : 2252
        },
        {
            "buffer" : 0,
            "byteLength" : 276,
            "byteOffset" : 2956
        },
        {
            "buffer" : 0,
            "byteLength" : 192,
            "byteOffset" : 3232
        },
        {
            "buffer" : 0,
            "byteLength" : 192,
            "byteOffset" : 3424
        },
        {
            "buffer" : 0,
            "byteLength" : 128,
            "byteOffset" : 3616
        },
        {
            "buffer" : 0,
            "byteLength" : 48,
            "byteOffset" : 3744
        },
        {
            "buffer" : 0,
            "byteLength" : 192,
            "byteOffset" : 3792
        },
        {
            "buffer" : 0,
            "byteLength" : 192,
            "byteOffset" : 3984
        },
        {
            "buffer" : 0,
            "byteLength" : 128,
            "byteOffset" : 4176
        },
        {
            "buffer" : 0,
            "byteLength" : 48,
            "byteOffset" : 4304
        },
        {
            "buffer" : 0,
            "byteLength" : 192,
            "byteOffset" : 4352
        },
        {
            "buffer" : 0,
            "byteLength" : 192,
            "byteOffset" : 4544
        },
        {
            "buffer" : 0,
            "byteLength" : 128,
            "byteOffset" : 4736
        },
        {
            "buffer" : 0,
            "byteLength" : 48,
            "byteOffset" : 4864
        },
        {
            "buffer" : 0,
            "byteLength" : 72,
            "byteOffset" : 4912
        },
        {
            "buffer" : 0,
            "byteLength" : 72,
            "byteOffset" : 4984
        },
        {
            "buffer" : 0,
            "byteLength" : 48,
            "byteOffset" : 5056
        },
        {
            "buffer" : 0,
            "byteLength" : 12,
            "byteOffset" : 5104
        }
    ],
    "samplers" : [
        {
            "magFilter" : 9729,
            "minFilter" : 9986
        }
    ],
    "buffers" : [
        {
            "byteLength" : 5116,
            "uri" : "predio_02.bin"
        }
    ]
}
