{
    "asset" : {
        "generator" : "Khronos glTF Blender I/O v1.4.40",
        "version" : "2.0"
    },
    "scene" : 0,
    "scenes" : [
        {
            "name" : "Scene",
            "nodes" : [
                0,
                1
            ]
        }
    ],
    "nodes" : [
        {
            "mesh" : 0,
            "name" : "chao"
        },
        {
            "mesh" : 1,
            "name" : "edificio_05_Z"
        }
    ],
    "materials" : [
        {
            "doubleSided" : true,
            "name" : "Asfalto",
            "normalTexture" : {
                "index" : 0,
                "texCoord" : 0
            },
            "occlusionTexture" : {
                "index" : 1,
                "texCoord" : 0
            },
            "pbrMetallicRoughness" : {
                "baseColorTexture" : {
                    "index" : 2,
                    "texCoord" : 0
                },
                "metallicFactor" : 0,
                "metallicRoughnessTexture" : {
                    "index" : 1,
                    "texCoord" : 0
                }
            }
        },
        {
            "doubleSided" : true,
            "name" : "Telhas",
            "normalTexture" : {
                "index" : 3,
                "texCoord" : 0
            },
            "pbrMetallicRoughness" : {
                "baseColorTexture" : {
                    "index" : 4,
                    "texCoord" : 0
                },
                "metallicFactor" : 0,
                "metallicRoughnessTexture" : {
                    "index" : 5,
                    "texCoord" : 0
                }
            }
        },
        {
            "doubleSided" : true,
            "name" : "Musgo",
            "normalTexture" : {
                "index" : 6,
                "texCoord" : 0
            },
            "pbrMetallicRoughness" : {
                "baseColorTexture" : {
                    "index" : 7,
                    "texCoord" : 0
                },
                "metallicFactor" : 0,
                "metallicRoughnessTexture" : {
                    "index" : 8,
                    "texCoord" : 0
                }
            }
        },
        {
            "doubleSided" : true,
            "name" : "Tabuas",
            "normalTexture" : {
                "index" : 9,
                "texCoord" : 0
            },
            "pbrMetallicRoughness" : {
                "baseColorTexture" : {
                    "index" : 10,
                    "texCoord" : 0
                },
                "metallicFactor" : 0,
                "metallicRoughnessTexture" : {
                    "index" : 11,
                    "texCoord" : 0
                }
            }
        },
        {
            "doubleSided" : true,
            "name" : "Quadrados",
            "normalTexture" : {
                "index" : 12,
                "texCoord" : 0
            },
            "pbrMetallicRoughness" : {
                "baseColorTexture" : {
                    "index" : 13,
                    "texCoord" : 0
                },
                "metallicFactor" : 0,
                "metallicRoughnessTexture" : {
                    "index" : 14,
                    "texCoord" : 0
                }
            }
        }
    ],
    "meshes" : [
        {
            "name" : "Cube.001",
            "primitives" : [
                {
                    "attributes" : {
                        "POSITION" : 0,
                        "NORMAL" : 1,
                        "TEXCOORD_0" : 2
                    },
                    "indices" : 3,
                    "material" : 0
                }
            ]
        },
        {
            "name" : "Cube.004",
            "primitives" : [
                {
                    "attributes" : {
                        "POSITION" : 4,
                        "NORMAL" : 5,
                        "TEXCOORD_0" : 6
                    },
                    "indices" : 7,
                    "material" : 1
                },
                {
                    "attributes" : {
                        "POSITION" : 8,
                        "NORMAL" : 9,
                        "TEXCOORD_0" : 10
                    },
                    "indices" : 11,
                    "material" : 2
                },
                {
                    "attributes" : {
                        "POSITION" : 12,
                        "NORMAL" : 13,
                        "TEXCOORD_0" : 14
                    },
                    "indices" : 15,
                    "material" : 3
                },
                {
                    "attributes" : {
                        "POSITION" : 16,
                        "NORMAL" : 17,
                        "TEXCOORD_0" : 18
                    },
                    "indices" : 19,
                    "material" : 4
                }
            ]
        }
    ],
    "textures" : [
        {
            "sampler" : 0,
            "source" : 0
        },
        {
            "sampler" : 0,
            "source" : 1
        },
        {
            "sampler" : 0,
            "source" : 2
        },
        {
            "sampler" : 0,
            "source" : 3
        },
        {
            "sampler" : 0,
            "source" : 4
        },
        {
            "sampler" : 0,
            "source" : 5
        },
        {
            "sampler" : 0,
            "source" : 6
        },
        {
            "sampler" : 0,
            "source" : 7
        },
        {
            "sampler" : 0,
            "source" : 8
        },
        {
            "sampler" : 0,
            "source" : 9
        },
        {
            "sampler" : 0,
            "source" : 10
        },
        {
            "sampler" : 0,
            "source" : 11
        },
        {
            "sampler" : 0,
            "source" : 12
        },
        {
            "sampler" : 0,
            "source" : 13
        },
        {
            "sampler" : 0,
            "source" : 14
        }
    ],
    "images" : [
        {
            "mimeType" : "image/jpeg",
            "name" : "Asphalt_001_NRM",
            "uri" : "Asphalt_001_NRM.jpg"
        },
        {
            "mimeType" : "image/png",
            "name" : "Asphalt_001_OCC-Asphalt_001_SPEC",
            "uri" : "Asphalt_001_OCC-Asphalt_001_SPEC.png"
        },
        {
            "mimeType" : "image/jpeg",
            "name" : "Asphalt_001_COLOR",
            "uri" : "Asphalt_001_COLOR.jpg"
        },
        {
            "mimeType" : "image/jpeg",
            "name" : "RoofingTiles005_4K_Normal",
            "uri" : "RoofingTiles005_4K_Normal.jpg"
        },
        {
            "mimeType" : "image/jpeg",
            "name" : "RoofingTiles005_4K_Color",
            "uri" : "RoofingTiles005_4K_Color.jpg"
        },
        {
            "mimeType" : "image/png",
            "name" : "RoofingTiles005_4K_Roughness",
            "uri" : "RoofingTiles005_4K_Roughness.png"
        },
        {
            "mimeType" : "image/jpeg",
            "name" : "Moss004_2K_Normal",
            "uri" : "Moss004_2K_Normal.jpg"
        },
        {
            "mimeType" : "image/jpeg",
            "name" : "Moss004_2K_Color",
            "uri" : "Moss004_2K_Color.jpg"
        },
        {
            "mimeType" : "image/png",
            "name" : "Moss004_2K_Roughness",
            "uri" : "Moss004_2K_Roughness.png"
        },
        {
            "mimeType" : "image/jpeg",
            "name" : "old-plank-flooring3_normal",
            "uri" : "old-plank-flooring3_normal.jpg"
        },
        {
            "mimeType" : "image/jpeg",
            "name" : "old-plank-flooring3_basecolor",
            "uri" : "old-plank-flooring3_basecolor.jpg"
        },
        {
            "mimeType" : "image/png",
            "name" : "old-plank-flooring3_roughness",
            "uri" : "old-plank-flooring3_roughness.png"
        },
        {
            "mimeType" : "image/jpeg",
            "name" : "flat-cobble-moss-normal-ogl",
            "uri" : "flat-cobble-moss-normal-ogl.jpg"
        },
        {
            "mimeType" : "image/jpeg",
            "name" : "flat-cobble-moss-albedo",
            "uri" : "flat-cobble-moss-albedo.jpg"
        },
        {
            "mimeType" : "image/png",
            "name" : "flat-cobble-moss-roughness",
            "uri" : "flat-cobble-moss-roughness.png"
        }
    ],
    "accessors" : [
        {
            "bufferView" : 0,
            "componentType" : 5126,
            "count" : 4,
            "max" : [
                25,
                -200,
                25
            ],
            "min" : [
                -25,
                -200,
                -25
            ],
            "type" : "VEC3"
        },
        {
            "bufferView" : 1,
            "componentType" : 5126,
            "count" : 4,
            "type" : "VEC3"
        },
        {
            "bufferView" : 2,
            "componentType" : 5126,
            "count" : 4,
            "type" : "VEC2"
        },
        {
            "bufferView" : 3,
            "componentType" : 5123,
            "count" : 6,
            "type" : "SCALAR"
        },
        {
            "bufferView" : 4,
            "componentType" : 5126,
            "count" : 69,
            "max" : [
                24.99999237060547,
                0.8412339687347412,
                25
            ],
            "min" : [
                -25.00000762939453,
                -200,
                -25
            ],
            "type" : "VEC3"
        },
        {
            "bufferView" : 5,
            "componentType" : 5126,
            "count" : 69,
            "type" : "VEC3"
        },
        {
            "bufferView" : 6,
            "componentType" : 5126,
            "count" : 69,
            "type" : "VEC2"
        },
        {
            "bufferView" : 7,
            "componentType" : 5123,
            "count" : 258,
            "type" : "SCALAR"
        },
        {
            "bufferView" : 8,
            "componentType" : 5126,
            "count" : 50,
            "max" : [
                24.99999237060547,
                -14.634140014648438,
                25
            ],
            "min" : [
                -25.00000762939453,
                -19.512195587158203,
                -25
            ],
            "type" : "VEC3"
        },
        {
            "bufferView" : 9,
            "componentType" : 5126,
            "count" : 50,
            "type" : "VEC3"
        },
        {
            "bufferView" : 10,
            "componentType" : 5126,
            "count" : 50,
            "type" : "VEC2"
        },
        {
            "bufferView" : 11,
            "componentType" : 5123,
            "count" : 84,
            "type" : "SCALAR"
        },
        {
            "bufferView" : 12,
            "componentType" : 5126,
            "count" : 1019,
            "max" : [
                24.99999237060547,
                0.20615455508232117,
                25
            ],
            "min" : [
                -25.00000762939453,
                -200,
                -25
            ],
            "type" : "VEC3"
        },
        {
            "bufferView" : 13,
            "componentType" : 5126,
            "count" : 1019,
            "type" : "VEC3"
        },
        {
            "bufferView" : 14,
            "componentType" : 5126,
            "count" : 1019,
            "type" : "VEC2"
        },
        {
            "bufferView" : 15,
            "componentType" : 5123,
            "count" : 2370,
            "type" : "SCALAR"
        },
        {
            "bufferView" : 16,
            "componentType" : 5126,
            "count" : 668,
            "max" : [
                24.99999237060547,
                -0.6543295383453369,
                25
            ],
            "min" : [
                -25.00000762939453,
                -200,
                -25
            ],
            "type" : "VEC3"
        },
        {
            "bufferView" : 17,
            "componentType" : 5126,
            "count" : 668,
            "type" : "VEC3"
        },
        {
            "bufferView" : 18,
            "componentType" : 5126,
            "count" : 668,
            "type" : "VEC2"
        },
        {
            "bufferView" : 19,
            "componentType" : 5123,
            "count" : 1500,
            "type" : "SCALAR"
        }
    ],
    "bufferViews" : [
        {
            "buffer" : 0,
            "byteLength" : 48,
            "byteOffset" : 0
        },
        {
            "buffer" : 0,
            "byteLength" : 48,
            "byteOffset" : 48
        },
        {
            "buffer" : 0,
            "byteLength" : 32,
            "byteOffset" : 96
        },
        {
            "buffer" : 0,
            "byteLength" : 12,
            "byteOffset" : 128
        },
        {
            "buffer" : 0,
            "byteLength" : 828,
            "byteOffset" : 140
        },
        {
            "buffer" : 0,
            "byteLength" : 828,
            "byteOffset" : 968
        },
        {
            "buffer" : 0,
            "byteLength" : 552,
            "byteOffset" : 1796
        },
        {
            "buffer" : 0,
            "byteLength" : 516,
            "byteOffset" : 2348
        },
        {
            "buffer" : 0,
            "byteLength" : 600,
            "byteOffset" : 2864
        },
        {
            "buffer" : 0,
            "byteLength" : 600,
            "byteOffset" : 3464
        },
        {
            "buffer" : 0,
            "byteLength" : 400,
            "byteOffset" : 4064
        },
        {
            "buffer" : 0,
            "byteLength" : 168,
            "byteOffset" : 4464
        },
        {
            "buffer" : 0,
            "byteLength" : 12228,
            "byteOffset" : 4632
        },
        {
            "buffer" : 0,
            "byteLength" : 12228,
            "byteOffset" : 16860
        },
        {
            "buffer" : 0,
            "byteLength" : 8152,
            "byteOffset" : 29088
        },
        {
            "buffer" : 0,
            "byteLength" : 4740,
            "byteOffset" : 37240
        },
        {
            "buffer" : 0,
            "byteLength" : 8016,
            "byteOffset" : 41980
        },
        {
            "buffer" : 0,
            "byteLength" : 8016,
            "byteOffset" : 49996
        },
        {
            "buffer" : 0,
            "byteLength" : 5344,
            "byteOffset" : 58012
        },
        {
            "buffer" : 0,
            "byteLength" : 3000,
            "byteOffset" : 63356
        }
    ],
    "samplers" : [
        {
            "magFilter" : 9729,
            "minFilter" : 9986
        }
    ],
    "buffers" : [
        {
            "byteLength" : 66356,
            "uri" : "predio_05.bin"
        }
    ]
}
