{
    "asset" : {
        "generator" : "Khronos glTF Blender I/O v1.4.40",
        "version" : "2.0"
    },
    "scene" : 0,
    "scenes" : [
        {
            "name" : "Scene",
            "nodes" : [
                0,
                1
            ]
        }
    ],
    "nodes" : [
        {
            "mesh" : 0,
            "name" : "chao"
        },
        {
            "mesh" : 1,
            "name" : "edificio_03_L"
        }
    ],
    "materials" : [
        {
            "doubleSided" : true,
            "name" : "Asfalto",
            "normalTexture" : {
                "index" : 0,
                "texCoord" : 0
            },
            "occlusionTexture" : {
                "index" : 1,
                "texCoord" : 0
            },
            "pbrMetallicRoughness" : {
                "baseColorTexture" : {
                    "index" : 2,
                    "texCoord" : 0
                },
                "metallicFactor" : 0,
                "metallicRoughnessTexture" : {
                    "index" : 1,
                    "texCoord" : 0
                }
            }
        },
        {
            "doubleSided" : true,
            "name" : "Telhas",
            "normalTexture" : {
                "index" : 3,
                "texCoord" : 0
            },
            "pbrMetallicRoughness" : {
                "baseColorTexture" : {
                    "index" : 4,
                    "texCoord" : 0
                },
                "metallicFactor" : 0,
                "metallicRoughnessTexture" : {
                    "index" : 5,
                    "texCoord" : 0
                }
            }
        },
        {
            "doubleSided" : true,
            "name" : "Tabuas",
            "normalTexture" : {
                "index" : 6,
                "texCoord" : 0
            },
            "pbrMetallicRoughness" : {
                "baseColorTexture" : {
                    "index" : 7,
                    "texCoord" : 0
                },
                "metallicFactor" : 0,
                "metallicRoughnessTexture" : {
                    "index" : 8,
                    "texCoord" : 0
                }
            }
        },
        {
            "doubleSided" : true,
            "name" : "Retangulos",
            "normalTexture" : {
                "index" : 9,
                "texCoord" : 0
            },
            "pbrMetallicRoughness" : {
                "baseColorTexture" : {
                    "index" : 10,
                    "texCoord" : 0
                },
                "metallicFactor" : 0,
                "metallicRoughnessTexture" : {
                    "index" : 11,
                    "texCoord" : 0
                }
            }
        }
    ],
    "meshes" : [
        {
            "name" : "Cube.001",
            "primitives" : [
                {
                    "attributes" : {
                        "POSITION" : 0,
                        "NORMAL" : 1,
                        "TEXCOORD_0" : 2
                    },
                    "indices" : 3,
                    "material" : 0
                }
            ]
        },
        {
            "name" : "Cube.005",
            "primitives" : [
                {
                    "attributes" : {
                        "POSITION" : 4,
                        "NORMAL" : 5,
                        "TEXCOORD_0" : 6
                    },
                    "indices" : 7,
                    "material" : 1
                },
                {
                    "attributes" : {
                        "POSITION" : 8,
                        "NORMAL" : 9,
                        "TEXCOORD_0" : 10
                    },
                    "indices" : 11,
                    "material" : 2
                },
                {
                    "attributes" : {
                        "POSITION" : 12,
                        "NORMAL" : 13,
                        "TEXCOORD_0" : 14
                    },
                    "indices" : 15,
                    "material" : 3
                }
            ]
        }
    ],
    "textures" : [
        {
            "sampler" : 0,
            "source" : 0
        },
        {
            "sampler" : 0,
            "source" : 1
        },
        {
            "sampler" : 0,
            "source" : 2
        },
        {
            "sampler" : 0,
            "source" : 3
        },
        {
            "sampler" : 0,
            "source" : 4
        },
        {
            "sampler" : 0,
            "source" : 5
        },
        {
            "sampler" : 0,
            "source" : 6
        },
        {
            "sampler" : 0,
            "source" : 7
        },
        {
            "sampler" : 0,
            "source" : 8
        },
        {
            "sampler" : 0,
            "source" : 9
        },
        {
            "sampler" : 0,
            "source" : 10
        },
        {
            "sampler" : 0,
            "source" : 11
        }
    ],
    "images" : [
        {
            "mimeType" : "image/jpeg",
            "name" : "Asphalt_001_NRM",
            "uri" : "Asphalt_001_NRM.jpg"
        },
        {
            "mimeType" : "image/png",
            "name" : "Asphalt_001_OCC-Asphalt_001_SPEC",
            "uri" : "Asphalt_001_OCC-Asphalt_001_SPEC.png"
        },
        {
            "mimeType" : "image/jpeg",
            "name" : "Asphalt_001_COLOR",
            "uri" : "Asphalt_001_COLOR.jpg"
        },
        {
            "mimeType" : "image/jpeg",
            "name" : "RoofingTiles005_4K_Normal",
            "uri" : "RoofingTiles005_4K_Normal.jpg"
        },
        {
            "mimeType" : "image/jpeg",
            "name" : "RoofingTiles005_4K_Color",
            "uri" : "RoofingTiles005_4K_Color.jpg"
        },
        {
            "mimeType" : "image/png",
            "name" : "RoofingTiles005_4K_Roughness",
            "uri" : "RoofingTiles005_4K_Roughness.png"
        },
        {
            "mimeType" : "image/jpeg",
            "name" : "old-plank-flooring3_normal",
            "uri" : "old-plank-flooring3_normal.jpg"
        },
        {
            "mimeType" : "image/jpeg",
            "name" : "old-plank-flooring3_basecolor",
            "uri" : "old-plank-flooring3_basecolor.jpg"
        },
        {
            "mimeType" : "image/png",
            "name" : "old-plank-flooring3_roughness",
            "uri" : "old-plank-flooring3_roughness.png"
        },
        {
            "mimeType" : "image/jpeg",
            "name" : "wetcobble_normal-ogl",
            "uri" : "wetcobble_normal-ogl.jpg"
        },
        {
            "mimeType" : "image/jpeg",
            "name" : "wetcobble_albedo",
            "uri" : "wetcobble_albedo.jpg"
        },
        {
            "mimeType" : "image/png",
            "name" : "wetcobble_roughness",
            "uri" : "wetcobble_roughness.png"
        }
    ],
    "accessors" : [
        {
            "bufferView" : 0,
            "componentType" : 5126,
            "count" : 4,
            "max" : [
                25,
                -200,
                25
            ],
            "min" : [
                -25,
                -200,
                -25
            ],
            "type" : "VEC3"
        },
        {
            "bufferView" : 1,
            "componentType" : 5126,
            "count" : 4,
            "type" : "VEC3"
        },
        {
            "bufferView" : 2,
            "componentType" : 5126,
            "count" : 4,
            "type" : "VEC2"
        },
        {
            "bufferView" : 3,
            "componentType" : 5123,
            "count" : 6,
            "type" : "SCALAR"
        },
        {
            "bufferView" : 4,
            "componentType" : 5126,
            "count" : 235,
            "max" : [
                20.814165115356445,
                4.184181213378906,
                25.00000762939453
            ],
            "min" : [
                -25.00000762939453,
                -200,
                -25.0000057220459
            ],
            "type" : "VEC3"
        },
        {
            "bufferView" : 5,
            "componentType" : 5126,
            "count" : 235,
            "type" : "VEC3"
        },
        {
            "bufferView" : 6,
            "componentType" : 5126,
            "count" : 235,
            "type" : "VEC2"
        },
        {
            "bufferView" : 7,
            "componentType" : 5123,
            "count" : 435,
            "type" : "SCALAR"
        },
        {
            "bufferView" : 8,
            "componentType" : 5126,
            "count" : 77,
            "max" : [
                20.814165115356445,
                3.4263663906131114e-07,
                25.00000762939453
            ],
            "min" : [
                -25.00000762939453,
                -40.000003814697266,
                -25.0000057220459
            ],
            "type" : "VEC3"
        },
        {
            "bufferView" : 9,
            "componentType" : 5126,
            "count" : 77,
            "type" : "VEC3"
        },
        {
            "bufferView" : 10,
            "componentType" : 5126,
            "count" : 77,
            "type" : "VEC2"
        },
        {
            "bufferView" : 11,
            "componentType" : 5123,
            "count" : 117,
            "type" : "SCALAR"
        },
        {
            "bufferView" : 12,
            "componentType" : 5126,
            "count" : 12,
            "max" : [
                9.98090934753418,
                3.4263663906131114e-07,
                5.000006198883057
            ],
            "min" : [
                -21.407283782958984,
                -35.01917266845703,
                -25.000003814697266
            ],
            "type" : "VEC3"
        },
        {
            "bufferView" : 13,
            "componentType" : 5126,
            "count" : 12,
            "type" : "VEC3"
        },
        {
            "bufferView" : 14,
            "componentType" : 5126,
            "count" : 12,
            "type" : "VEC2"
        },
        {
            "bufferView" : 15,
            "componentType" : 5123,
            "count" : 18,
            "type" : "SCALAR"
        }
    ],
    "bufferViews" : [
        {
            "buffer" : 0,
            "byteLength" : 48,
            "byteOffset" : 0
        },
        {
            "buffer" : 0,
            "byteLength" : 48,
            "byteOffset" : 48
        },
        {
            "buffer" : 0,
            "byteLength" : 32,
            "byteOffset" : 96
        },
        {
            "buffer" : 0,
            "byteLength" : 12,
            "byteOffset" : 128
        },
        {
            "buffer" : 0,
            "byteLength" : 2820,
            "byteOffset" : 140
        },
        {
            "buffer" : 0,
            "byteLength" : 2820,
            "byteOffset" : 2960
        },
        {
            "buffer" : 0,
            "byteLength" : 1880,
            "byteOffset" : 5780
        },
        {
            "buffer" : 0,
            "byteLength" : 870,
            "byteOffset" : 7660
        },
        {
            "buffer" : 0,
            "byteLength" : 924,
            "byteOffset" : 8532
        },
        {
            "buffer" : 0,
            "byteLength" : 924,
            "byteOffset" : 9456
        },
        {
            "buffer" : 0,
            "byteLength" : 616,
            "byteOffset" : 10380
        },
        {
            "buffer" : 0,
            "byteLength" : 234,
            "byteOffset" : 10996
        },
        {
            "buffer" : 0,
            "byteLength" : 144,
            "byteOffset" : 11232
        },
        {
            "buffer" : 0,
            "byteLength" : 144,
            "byteOffset" : 11376
        },
        {
            "buffer" : 0,
            "byteLength" : 96,
            "byteOffset" : 11520
        },
        {
            "buffer" : 0,
            "byteLength" : 36,
            "byteOffset" : 11616
        }
    ],
    "samplers" : [
        {
            "magFilter" : 9729,
            "minFilter" : 9986
        }
    ],
    "buffers" : [
        {
            "byteLength" : 11652,
            "uri" : "predio_03.bin"
        }
    ]
}
