{
    "asset" : {
        "generator" : "Khronos glTF Blender I/O v1.4.40",
        "version" : "2.0"
    },
    "scene" : 0,
    "scenes" : [
        {
            "name" : "Scene",
            "nodes" : [
                0,
                1
            ]
        }
    ],
    "nodes" : [
        {
            "mesh" : 0,
            "name" : "chao"
        },
        {
            "mesh" : 1,
            "name" : "edificio_08_V",
            "scale" : [
                1,
                1,
                1.0445023775100708
            ]
        }
    ],
    "materials" : [
        {
            "doubleSided" : true,
            "name" : "Asfalto",
            "normalTexture" : {
                "index" : 0,
                "texCoord" : 0
            },
            "occlusionTexture" : {
                "index" : 1,
                "texCoord" : 0
            },
            "pbrMetallicRoughness" : {
                "baseColorTexture" : {
                    "index" : 2,
                    "texCoord" : 0
                },
                "metallicFactor" : 0,
                "metallicRoughnessTexture" : {
                    "index" : 1,
                    "texCoord" : 0
                }
            }
        },
        {
            "doubleSided" : true,
            "name" : "Telhas",
            "normalTexture" : {
                "index" : 3,
                "texCoord" : 0
            },
            "pbrMetallicRoughness" : {
                "baseColorTexture" : {
                    "index" : 4,
                    "texCoord" : 0
                },
                "metallicFactor" : 0,
                "metallicRoughnessTexture" : {
                    "index" : 5,
                    "texCoord" : 0
                }
            }
        },
        {
            "doubleSided" : true,
            "name" : "Musgo",
            "normalTexture" : {
                "index" : 6,
                "texCoord" : 0
            },
            "pbrMetallicRoughness" : {
                "baseColorTexture" : {
                    "index" : 7,
                    "texCoord" : 0
                },
                "metallicFactor" : 0,
                "metallicRoughnessTexture" : {
                    "index" : 8,
                    "texCoord" : 0
                }
            }
        },
        {
            "doubleSided" : true,
            "name" : "Quadrados",
            "normalTexture" : {
                "index" : 9,
                "texCoord" : 0
            },
            "pbrMetallicRoughness" : {
                "baseColorTexture" : {
                    "index" : 10,
                    "texCoord" : 0
                },
                "metallicFactor" : 0,
                "metallicRoughnessTexture" : {
                    "index" : 11,
                    "texCoord" : 0
                }
            }
        }
    ],
    "meshes" : [
        {
            "name" : "Cube.001",
            "primitives" : [
                {
                    "attributes" : {
                        "POSITION" : 0,
                        "NORMAL" : 1,
                        "TEXCOORD_0" : 2
                    },
                    "indices" : 3,
                    "material" : 0
                }
            ]
        },
        {
            "name" : "Cube.010",
            "primitives" : [
                {
                    "attributes" : {
                        "POSITION" : 4,
                        "NORMAL" : 5,
                        "TEXCOORD_0" : 6
                    },
                    "indices" : 7,
                    "material" : 1
                },
                {
                    "attributes" : {
                        "POSITION" : 8,
                        "NORMAL" : 9,
                        "TEXCOORD_0" : 10
                    },
                    "indices" : 11,
                    "material" : 2
                },
                {
                    "attributes" : {
                        "POSITION" : 12,
                        "NORMAL" : 13,
                        "TEXCOORD_0" : 14
                    },
                    "indices" : 15,
                    "material" : 3
                }
            ]
        }
    ],
    "textures" : [
        {
            "sampler" : 0,
            "source" : 0
        },
        {
            "sampler" : 0,
            "source" : 1
        },
        {
            "sampler" : 0,
            "source" : 2
        },
        {
            "sampler" : 0,
            "source" : 3
        },
        {
            "sampler" : 0,
            "source" : 4
        },
        {
            "sampler" : 0,
            "source" : 5
        },
        {
            "sampler" : 0,
            "source" : 6
        },
        {
            "sampler" : 0,
            "source" : 7
        },
        {
            "sampler" : 0,
            "source" : 8
        },
        {
            "sampler" : 0,
            "source" : 9
        },
        {
            "sampler" : 0,
            "source" : 10
        },
        {
            "sampler" : 0,
            "source" : 11
        }
    ],
    "images" : [
        {
            "mimeType" : "image/jpeg",
            "name" : "Asphalt_001_NRM",
            "uri" : "Asphalt_001_NRM.jpg"
        },
        {
            "mimeType" : "image/png",
            "name" : "Asphalt_001_OCC-Asphalt_001_SPEC",
            "uri" : "Asphalt_001_OCC-Asphalt_001_SPEC.png"
        },
        {
            "mimeType" : "image/jpeg",
            "name" : "Asphalt_001_COLOR",
            "uri" : "Asphalt_001_COLOR.jpg"
        },
        {
            "mimeType" : "image/jpeg",
            "name" : "RoofingTiles005_4K_Normal",
            "uri" : "RoofingTiles005_4K_Normal.jpg"
        },
        {
            "mimeType" : "image/jpeg",
            "name" : "RoofingTiles005_4K_Color",
            "uri" : "RoofingTiles005_4K_Color.jpg"
        },
        {
            "mimeType" : "image/png",
            "name" : "RoofingTiles005_4K_Roughness",
            "uri" : "RoofingTiles005_4K_Roughness.png"
        },
        {
            "mimeType" : "image/jpeg",
            "name" : "Moss004_2K_Normal",
            "uri" : "Moss004_2K_Normal.jpg"
        },
        {
            "mimeType" : "image/jpeg",
            "name" : "Moss004_2K_Color",
            "uri" : "Moss004_2K_Color.jpg"
        },
        {
            "mimeType" : "image/png",
            "name" : "Moss004_2K_Roughness",
            "uri" : "Moss004_2K_Roughness.png"
        },
        {
            "mimeType" : "image/jpeg",
            "name" : "flat-cobble-moss-normal-ogl",
            "uri" : "flat-cobble-moss-normal-ogl.jpg"
        },
        {
            "mimeType" : "image/jpeg",
            "name" : "flat-cobble-moss-albedo",
            "uri" : "flat-cobble-moss-albedo.jpg"
        },
        {
            "mimeType" : "image/png",
            "name" : "flat-cobble-moss-roughness",
            "uri" : "flat-cobble-moss-roughness.png"
        }
    ],
    "accessors" : [
        {
            "bufferView" : 0,
            "componentType" : 5126,
            "count" : 4,
            "max" : [
                25,
                -200,
                25
            ],
            "min" : [
                -25,
                -200,
                -25
            ],
            "type" : "VEC3"
        },
        {
            "bufferView" : 1,
            "componentType" : 5126,
            "count" : 4,
            "type" : "VEC3"
        },
        {
            "bufferView" : 2,
            "componentType" : 5126,
            "count" : 4,
            "type" : "VEC2"
        },
        {
            "bufferView" : 3,
            "componentType" : 5123,
            "count" : 6,
            "type" : "SCALAR"
        },
        {
            "bufferView" : 4,
            "componentType" : 5126,
            "count" : 68,
            "max" : [
                7.5,
                -7.6057047843933105,
                22.5
            ],
            "min" : [
                -7.7817463874816895,
                -200,
                -22.5
            ],
            "type" : "VEC3"
        },
        {
            "bufferView" : 5,
            "componentType" : 5126,
            "count" : 68,
            "type" : "VEC3"
        },
        {
            "bufferView" : 6,
            "componentType" : 5126,
            "count" : 68,
            "type" : "VEC2"
        },
        {
            "bufferView" : 7,
            "componentType" : 5123,
            "count" : 150,
            "type" : "SCALAR"
        },
        {
            "bufferView" : 8,
            "componentType" : 5126,
            "count" : 200,
            "max" : [
                8.148159980773926,
                -5.036036014556885,
                23.42990493774414
            ],
            "min" : [
                -8.711650848388672,
                -12.91130256652832,
                -23.42990493774414
            ],
            "type" : "VEC3"
        },
        {
            "bufferView" : 9,
            "componentType" : 5126,
            "count" : 200,
            "type" : "VEC3"
        },
        {
            "bufferView" : 10,
            "componentType" : 5126,
            "count" : 200,
            "type" : "VEC2"
        },
        {
            "bufferView" : 11,
            "componentType" : 5123,
            "count" : 588,
            "type" : "SCALAR"
        },
        {
            "bufferView" : 12,
            "componentType" : 5126,
            "count" : 64,
            "max" : [
                5.099601745605469,
                0.65754234790802,
                23.05832862854004
            ],
            "min" : [
                -5.715933322906494,
                -6.602673530578613,
                -23.093517303466797
            ],
            "type" : "VEC3"
        },
        {
            "bufferView" : 13,
            "componentType" : 5126,
            "count" : 64,
            "type" : "VEC3"
        },
        {
            "bufferView" : 14,
            "componentType" : 5126,
            "count" : 64,
            "type" : "VEC2"
        },
        {
            "bufferView" : 15,
            "componentType" : 5123,
            "count" : 162,
            "type" : "SCALAR"
        }
    ],
    "bufferViews" : [
        {
            "buffer" : 0,
            "byteLength" : 48,
            "byteOffset" : 0
        },
        {
            "buffer" : 0,
            "byteLength" : 48,
            "byteOffset" : 48
        },
        {
            "buffer" : 0,
            "byteLength" : 32,
            "byteOffset" : 96
        },
        {
            "buffer" : 0,
            "byteLength" : 12,
            "byteOffset" : 128
        },
        {
            "buffer" : 0,
            "byteLength" : 816,
            "byteOffset" : 140
        },
        {
            "buffer" : 0,
            "byteLength" : 816,
            "byteOffset" : 956
        },
        {
            "buffer" : 0,
            "byteLength" : 544,
            "byteOffset" : 1772
        },
        {
            "buffer" : 0,
            "byteLength" : 300,
            "byteOffset" : 2316
        },
        {
            "buffer" : 0,
            "byteLength" : 2400,
            "byteOffset" : 2616
        },
        {
            "buffer" : 0,
            "byteLength" : 2400,
            "byteOffset" : 5016
        },
        {
            "buffer" : 0,
            "byteLength" : 1600,
            "byteOffset" : 7416
        },
        {
            "buffer" : 0,
            "byteLength" : 1176,
            "byteOffset" : 9016
        },
        {
            "buffer" : 0,
            "byteLength" : 768,
            "byteOffset" : 10192
        },
        {
            "buffer" : 0,
            "byteLength" : 768,
            "byteOffset" : 10960
        },
        {
            "buffer" : 0,
            "byteLength" : 512,
            "byteOffset" : 11728
        },
        {
            "buffer" : 0,
            "byteLength" : 324,
            "byteOffset" : 12240
        }
    ],
    "samplers" : [
        {
            "magFilter" : 9729,
            "minFilter" : 9986
        }
    ],
    "buffers" : [
        {
            "byteLength" : 12564,
            "uri" : "predio_08.bin"
        }
    ]
}
