{
    "asset" : {
        "generator" : "Khronos glTF Blender I/O v1.4.40",
        "version" : "2.0"
    },
    "scene" : 0,
    "scenes" : [
        {
            "name" : "Scene",
            "nodes" : [
                0,
                1
            ]
        }
    ],
    "nodes" : [
        {
            "mesh" : 0,
            "name" : "chao"
        },
        {
            "mesh" : 1,
            "name" : "edificio_06_I",
            "scale" : [
                1,
                1,
                1.0445023775100708
            ]
        }
    ],
    "materials" : [
        {
            "doubleSided" : true,
            "name" : "Asfalto",
            "normalTexture" : {
                "index" : 0,
                "texCoord" : 0
            },
            "occlusionTexture" : {
                "index" : 1,
                "texCoord" : 0
            },
            "pbrMetallicRoughness" : {
                "baseColorTexture" : {
                    "index" : 2,
                    "texCoord" : 0
                },
                "metallicFactor" : 0,
                "metallicRoughnessTexture" : {
                    "index" : 1,
                    "texCoord" : 0
                }
            }
        },
        {
            "doubleSided" : true,
            "name" : "Telhas",
            "normalTexture" : {
                "index" : 3,
                "texCoord" : 0
            },
            "pbrMetallicRoughness" : {
                "baseColorTexture" : {
                    "index" : 4,
                    "texCoord" : 0
                },
                "metallicFactor" : 0,
                "metallicRoughnessTexture" : {
                    "index" : 5,
                    "texCoord" : 0
                }
            }
        },
        {
            "doubleSided" : true,
            "name" : "Musgo",
            "normalTexture" : {
                "index" : 6,
                "texCoord" : 0
            },
            "pbrMetallicRoughness" : {
                "baseColorTexture" : {
                    "index" : 7,
                    "texCoord" : 0
                },
                "metallicFactor" : 0,
                "metallicRoughnessTexture" : {
                    "index" : 8,
                    "texCoord" : 0
                }
            }
        }
    ],
    "meshes" : [
        {
            "name" : "Cube.001",
            "primitives" : [
                {
                    "attributes" : {
                        "POSITION" : 0,
                        "NORMAL" : 1,
                        "TEXCOORD_0" : 2
                    },
                    "indices" : 3,
                    "material" : 0
                }
            ]
        },
        {
            "name" : "Cube",
            "primitives" : [
                {
                    "attributes" : {
                        "POSITION" : 4,
                        "NORMAL" : 5,
                        "TEXCOORD_0" : 6
                    },
                    "indices" : 7,
                    "material" : 1
                },
                {
                    "attributes" : {
                        "POSITION" : 8,
                        "NORMAL" : 9,
                        "TEXCOORD_0" : 10
                    },
                    "indices" : 11,
                    "material" : 2
                }
            ]
        }
    ],
    "textures" : [
        {
            "sampler" : 0,
            "source" : 0
        },
        {
            "sampler" : 0,
            "source" : 1
        },
        {
            "sampler" : 0,
            "source" : 2
        },
        {
            "sampler" : 0,
            "source" : 3
        },
        {
            "sampler" : 0,
            "source" : 4
        },
        {
            "sampler" : 0,
            "source" : 5
        },
        {
            "sampler" : 0,
            "source" : 6
        },
        {
            "sampler" : 0,
            "source" : 7
        },
        {
            "sampler" : 0,
            "source" : 8
        }
    ],
    "images" : [
        {
            "mimeType" : "image/jpeg",
            "name" : "Asphalt_001_NRM",
            "uri" : "Asphalt_001_NRM.jpg"
        },
        {
            "mimeType" : "image/png",
            "name" : "Asphalt_001_OCC-Asphalt_001_SPEC",
            "uri" : "Asphalt_001_OCC-Asphalt_001_SPEC.png"
        },
        {
            "mimeType" : "image/jpeg",
            "name" : "Asphalt_001_COLOR",
            "uri" : "Asphalt_001_COLOR.jpg"
        },
        {
            "mimeType" : "image/jpeg",
            "name" : "RoofingTiles005_4K_Normal",
            "uri" : "RoofingTiles005_4K_Normal.jpg"
        },
        {
            "mimeType" : "image/jpeg",
            "name" : "RoofingTiles005_4K_Color",
            "uri" : "RoofingTiles005_4K_Color.jpg"
        },
        {
            "mimeType" : "image/png",
            "name" : "RoofingTiles005_4K_Roughness",
            "uri" : "RoofingTiles005_4K_Roughness.png"
        },
        {
            "mimeType" : "image/jpeg",
            "name" : "Moss004_2K_Normal",
            "uri" : "Moss004_2K_Normal.jpg"
        },
        {
            "mimeType" : "image/jpeg",
            "name" : "Moss004_2K_Color",
            "uri" : "Moss004_2K_Color.jpg"
        },
        {
            "mimeType" : "image/png",
            "name" : "Moss004_2K_Roughness",
            "uri" : "Moss004_2K_Roughness.png"
        }
    ],
    "accessors" : [
        {
            "bufferView" : 0,
            "componentType" : 5126,
            "count" : 4,
            "max" : [
                25,
                -200,
                25
            ],
            "min" : [
                -25,
                -200,
                -25
            ],
            "type" : "VEC3"
        },
        {
            "bufferView" : 1,
            "componentType" : 5126,
            "count" : 4,
            "type" : "VEC3"
        },
        {
            "bufferView" : 2,
            "componentType" : 5126,
            "count" : 4,
            "type" : "VEC2"
        },
        {
            "bufferView" : 3,
            "componentType" : 5123,
            "count" : 6,
            "type" : "SCALAR"
        },
        {
            "bufferView" : 4,
            "componentType" : 5126,
            "count" : 66,
            "max" : [
                -8.5,
                -1.9121266603469849,
                22.5
            ],
            "min" : [
                -23.5,
                -200,
                -22.5
            ],
            "type" : "VEC3"
        },
        {
            "bufferView" : 5,
            "componentType" : 5126,
            "count" : 66,
            "type" : "VEC3"
        },
        {
            "bufferView" : 6,
            "componentType" : 5126,
            "count" : 66,
            "type" : "VEC2"
        },
        {
            "bufferView" : 7,
            "componentType" : 5123,
            "count" : 150,
            "type" : "SCALAR"
        },
        {
            "bufferView" : 8,
            "componentType" : 5126,
            "count" : 172,
            "max" : [
                -7.570094585418701,
                0.65754234790802,
                23.42990493774414
            ],
            "min" : [
                -24.42990493774414,
                -7.217724800109863,
                -23.42990493774414
            ],
            "type" : "VEC3"
        },
        {
            "bufferView" : 9,
            "componentType" : 5126,
            "count" : 172,
            "type" : "VEC3"
        },
        {
            "bufferView" : 10,
            "componentType" : 5126,
            "count" : 172,
            "type" : "VEC2"
        },
        {
            "bufferView" : 11,
            "componentType" : 5123,
            "count" : 510,
            "type" : "SCALAR"
        }
    ],
    "bufferViews" : [
        {
            "buffer" : 0,
            "byteLength" : 48,
            "byteOffset" : 0
        },
        {
            "buffer" : 0,
            "byteLength" : 48,
            "byteOffset" : 48
        },
        {
            "buffer" : 0,
            "byteLength" : 32,
            "byteOffset" : 96
        },
        {
            "buffer" : 0,
            "byteLength" : 12,
            "byteOffset" : 128
        },
        {
            "buffer" : 0,
            "byteLength" : 792,
            "byteOffset" : 140
        },
        {
            "buffer" : 0,
            "byteLength" : 792,
            "byteOffset" : 932
        },
        {
            "buffer" : 0,
            "byteLength" : 528,
            "byteOffset" : 1724
        },
        {
            "buffer" : 0,
            "byteLength" : 300,
            "byteOffset" : 2252
        },
        {
            "buffer" : 0,
            "byteLength" : 2064,
            "byteOffset" : 2552
        },
        {
            "buffer" : 0,
            "byteLength" : 2064,
            "byteOffset" : 4616
        },
        {
            "buffer" : 0,
            "byteLength" : 1376,
            "byteOffset" : 6680
        },
        {
            "buffer" : 0,
            "byteLength" : 1020,
            "byteOffset" : 8056
        }
    ],
    "samplers" : [
        {
            "magFilter" : 9729,
            "minFilter" : 9986
        }
    ],
    "buffers" : [
        {
            "byteLength" : 9076,
            "uri" : "predio_06.bin"
        }
    ]
}
